<mxfile host="app.diagrams.net" agent="Mozilla/5.0 (X11; Linux x86_64; rv:134.0) Gecko/20100101 Firefox/134.0" version="26.0.8">
  <diagram name="Page-1" id="kqtu3io-jiDdtc9rSum6">
    <mxGraphModel dx="2216" dy="721" grid="1" gridSize="10" guides="1" tooltips="1" connect="1" arrows="1" fold="1" page="1" pageScale="1" pageWidth="850" pageHeight="1100" math="0" shadow="0">
      <root>
        <mxCell id="0" />
        <mxCell id="1" parent="0" />
        <mxCell id="CoiFYXESyOofG7yrg2iu-4" style="edgeStyle=orthogonalEdgeStyle;rounded=0;orthogonalLoop=1;jettySize=auto;html=1;entryX=0;entryY=0.5;entryDx=0;entryDy=0;" edge="1" parent="1" source="CoiFYXESyOofG7yrg2iu-1" target="CoiFYXESyOofG7yrg2iu-2">
          <mxGeometry relative="1" as="geometry" />
        </mxCell>
        <mxCell id="CoiFYXESyOofG7yrg2iu-1" value="CP" style="rounded=0;whiteSpace=wrap;html=1;fillColor=#fff2cc;strokeColor=#d6b656;" vertex="1" parent="1">
          <mxGeometry x="240" y="240" width="120" height="40" as="geometry" />
        </mxCell>
        <mxCell id="CoiFYXESyOofG7yrg2iu-5" style="edgeStyle=orthogonalEdgeStyle;rounded=0;orthogonalLoop=1;jettySize=auto;html=1;entryX=0;entryY=0.5;entryDx=0;entryDy=0;" edge="1" parent="1" source="CoiFYXESyOofG7yrg2iu-2" target="CoiFYXESyOofG7yrg2iu-3">
          <mxGeometry relative="1" as="geometry" />
        </mxCell>
        <mxCell id="CoiFYXESyOofG7yrg2iu-2" value="Anti-Fraud Partner" style="rounded=0;whiteSpace=wrap;html=1;fillColor=#ffe6cc;strokeColor=#d79b00;" vertex="1" parent="1">
          <mxGeometry x="520" y="240" width="120" height="40" as="geometry" />
        </mxCell>
        <mxCell id="CoiFYXESyOofG7yrg2iu-41" style="edgeStyle=orthogonalEdgeStyle;rounded=0;orthogonalLoop=1;jettySize=auto;html=1;dashed=1;" edge="1" parent="1" source="CoiFYXESyOofG7yrg2iu-3" target="CoiFYXESyOofG7yrg2iu-30">
          <mxGeometry relative="1" as="geometry">
            <Array as="points">
              <mxPoint x="810" y="390" />
              <mxPoint x="55" y="390" />
            </Array>
          </mxGeometry>
        </mxCell>
        <mxCell id="CoiFYXESyOofG7yrg2iu-3" value="SDP" style="rounded=0;whiteSpace=wrap;html=1;fillColor=#d5e8d4;strokeColor=#82b366;" vertex="1" parent="1">
          <mxGeometry x="750" y="240" width="120" height="40" as="geometry" />
        </mxCell>
        <mxCell id="CoiFYXESyOofG7yrg2iu-10" style="edgeStyle=orthogonalEdgeStyle;rounded=0;orthogonalLoop=1;jettySize=auto;html=1;entryX=0.392;entryY=1.05;entryDx=0;entryDy=0;entryPerimeter=0;dashed=1;" edge="1" parent="1" source="CoiFYXESyOofG7yrg2iu-3" target="CoiFYXESyOofG7yrg2iu-1">
          <mxGeometry relative="1" as="geometry">
            <Array as="points">
              <mxPoint x="810" y="320" />
              <mxPoint x="287" y="320" />
            </Array>
          </mxGeometry>
        </mxCell>
        <mxCell id="CoiFYXESyOofG7yrg2iu-11" value="Subscription Callback(5)" style="text;html=1;align=center;verticalAlign=middle;whiteSpace=wrap;rounded=0;" vertex="1" parent="1">
          <mxGeometry x="540" y="330" width="60" height="30" as="geometry" />
        </mxCell>
        <mxCell id="CoiFYXESyOofG7yrg2iu-15" value="Activation Req(4)" style="text;html=1;align=center;verticalAlign=middle;whiteSpace=wrap;rounded=0;" vertex="1" parent="1">
          <mxGeometry x="650" y="230" width="60" height="30" as="geometry" />
        </mxCell>
        <mxCell id="CoiFYXESyOofG7yrg2iu-18" style="edgeStyle=orthogonalEdgeStyle;rounded=0;orthogonalLoop=1;jettySize=auto;html=1;entryX=0;entryY=0.5;entryDx=0;entryDy=0;" edge="1" target="CoiFYXESyOofG7yrg2iu-21" parent="1">
          <mxGeometry relative="1" as="geometry">
            <mxPoint x="160" y="440" as="sourcePoint" />
          </mxGeometry>
        </mxCell>
        <mxCell id="CoiFYXESyOofG7yrg2iu-20" style="edgeStyle=orthogonalEdgeStyle;rounded=0;orthogonalLoop=1;jettySize=auto;html=1;entryX=0;entryY=0.5;entryDx=0;entryDy=0;" edge="1" source="CoiFYXESyOofG7yrg2iu-21" parent="1">
          <mxGeometry relative="1" as="geometry">
            <mxPoint x="550" y="440" as="targetPoint" />
          </mxGeometry>
        </mxCell>
        <mxCell id="CoiFYXESyOofG7yrg2iu-22" style="edgeStyle=orthogonalEdgeStyle;rounded=0;orthogonalLoop=1;jettySize=auto;html=1;" edge="1" source="CoiFYXESyOofG7yrg2iu-23" parent="1">
          <mxGeometry relative="1" as="geometry">
            <mxPoint x="790" y="440" as="targetPoint" />
          </mxGeometry>
        </mxCell>
        <mxCell id="CoiFYXESyOofG7yrg2iu-29" value="Act Request(2)" style="text;html=1;align=center;verticalAlign=middle;whiteSpace=wrap;rounded=0;" vertex="1" parent="1">
          <mxGeometry x="390" y="220" width="60" height="30" as="geometry" />
        </mxCell>
        <mxCell id="CoiFYXESyOofG7yrg2iu-31" style="edgeStyle=orthogonalEdgeStyle;rounded=0;orthogonalLoop=1;jettySize=auto;html=1;entryX=0;entryY=0.5;entryDx=0;entryDy=0;" edge="1" parent="1" source="CoiFYXESyOofG7yrg2iu-30" target="CoiFYXESyOofG7yrg2iu-1">
          <mxGeometry relative="1" as="geometry" />
        </mxCell>
        <mxCell id="CoiFYXESyOofG7yrg2iu-30" value="Actor" style="shape=umlActor;verticalLabelPosition=bottom;verticalAlign=top;html=1;outlineConnect=0;fillColor=#d5e8d4;strokeColor=#82b366;" vertex="1" parent="1">
          <mxGeometry x="40" y="230" width="30" height="60" as="geometry" />
        </mxCell>
        <mxCell id="CoiFYXESyOofG7yrg2iu-32" value="Trigger Act(1)" style="text;html=1;align=center;verticalAlign=middle;whiteSpace=wrap;rounded=0;" vertex="1" parent="1">
          <mxGeometry x="110" y="220" width="60" height="30" as="geometry" />
        </mxCell>
        <mxCell id="CoiFYXESyOofG7yrg2iu-34" style="edgeStyle=orthogonalEdgeStyle;rounded=0;orthogonalLoop=1;jettySize=auto;html=1;" edge="1" parent="1">
          <mxGeometry relative="1" as="geometry">
            <mxPoint x="565" y="240" as="sourcePoint" />
            <mxPoint x="40" y="240" as="targetPoint" />
            <Array as="points">
              <mxPoint x="565" y="160" />
              <mxPoint x="40" y="160" />
            </Array>
          </mxGeometry>
        </mxCell>
        <mxCell id="CoiFYXESyOofG7yrg2iu-37" style="edgeStyle=orthogonalEdgeStyle;rounded=0;orthogonalLoop=1;jettySize=auto;html=1;dashed=1;dashPattern=8 8;" edge="1" parent="1">
          <mxGeometry relative="1" as="geometry">
            <mxPoint x="70" y="230" as="sourcePoint" />
            <mxPoint x="555" y="240" as="targetPoint" />
            <Array as="points">
              <mxPoint x="70" y="240" />
              <mxPoint x="70" y="180" />
              <mxPoint x="555" y="180" />
            </Array>
          </mxGeometry>
        </mxCell>
        <mxCell id="CoiFYXESyOofG7yrg2iu-39" value="Web Consent Req(3)" style="text;html=1;align=center;verticalAlign=middle;whiteSpace=wrap;rounded=0;" vertex="1" parent="1">
          <mxGeometry x="240" y="130" width="90" height="30" as="geometry" />
        </mxCell>
        <mxCell id="CoiFYXESyOofG7yrg2iu-40" value="Web Consent Resp(3)" style="text;html=1;align=center;verticalAlign=middle;whiteSpace=wrap;rounded=0;" vertex="1" parent="1">
          <mxGeometry x="240" y="190" width="80" height="30" as="geometry" />
        </mxCell>
        <mxCell id="CoiFYXESyOofG7yrg2iu-42" value="&lt;div&gt;Opt-In&lt;/div&gt;&lt;div&gt;Nofication(5)&lt;/div&gt;" style="text;html=1;align=center;verticalAlign=middle;whiteSpace=wrap;rounded=0;" vertex="1" parent="1">
          <mxGeometry x="460" y="400" width="60" height="30" as="geometry" />
        </mxCell>
        <mxCell id="CoiFYXESyOofG7yrg2iu-44" value="&lt;b&gt;SIMPLIFIED JOURNEY&lt;/b&gt;" style="text;html=1;align=center;verticalAlign=middle;whiteSpace=wrap;rounded=0;" vertex="1" parent="1">
          <mxGeometry x="40" y="70" width="210" height="30" as="geometry" />
        </mxCell>
        <mxCell id="CoiFYXESyOofG7yrg2iu-45" value="&lt;b&gt;PROPOSED JOURNEY&lt;/b&gt;" style="text;html=1;align=center;verticalAlign=middle;whiteSpace=wrap;rounded=0;" vertex="1" parent="1">
          <mxGeometry x="35" y="470" width="210" height="30" as="geometry" />
        </mxCell>
        <mxCell id="CoiFYXESyOofG7yrg2iu-100" style="edgeStyle=orthogonalEdgeStyle;rounded=0;orthogonalLoop=1;jettySize=auto;html=1;entryX=0;entryY=0.5;entryDx=0;entryDy=0;" edge="1" parent="1" source="CoiFYXESyOofG7yrg2iu-101" target="CoiFYXESyOofG7yrg2iu-103">
          <mxGeometry relative="1" as="geometry" />
        </mxCell>
        <mxCell id="CoiFYXESyOofG7yrg2iu-101" value="CP" style="rounded=0;whiteSpace=wrap;html=1;fillColor=#fff2cc;strokeColor=#d6b656;" vertex="1" parent="1">
          <mxGeometry x="240" y="660" width="120" height="40" as="geometry" />
        </mxCell>
        <mxCell id="CoiFYXESyOofG7yrg2iu-102" style="edgeStyle=orthogonalEdgeStyle;rounded=0;orthogonalLoop=1;jettySize=auto;html=1;entryX=0;entryY=0.5;entryDx=0;entryDy=0;" edge="1" parent="1" source="CoiFYXESyOofG7yrg2iu-103" target="CoiFYXESyOofG7yrg2iu-105">
          <mxGeometry relative="1" as="geometry" />
        </mxCell>
        <mxCell id="CoiFYXESyOofG7yrg2iu-103" value="Anti-Fraud Partner" style="rounded=0;whiteSpace=wrap;html=1;fillColor=#ffe6cc;strokeColor=#d79b00;" vertex="1" parent="1">
          <mxGeometry x="520" y="660" width="120" height="40" as="geometry" />
        </mxCell>
        <mxCell id="CoiFYXESyOofG7yrg2iu-104" style="edgeStyle=orthogonalEdgeStyle;rounded=0;orthogonalLoop=1;jettySize=auto;html=1;dashed=1;" edge="1" parent="1" source="CoiFYXESyOofG7yrg2iu-105" target="CoiFYXESyOofG7yrg2iu-111">
          <mxGeometry relative="1" as="geometry">
            <Array as="points">
              <mxPoint x="810" y="810" />
              <mxPoint x="140" y="810" />
              <mxPoint x="140" y="700" />
            </Array>
          </mxGeometry>
        </mxCell>
        <mxCell id="CoiFYXESyOofG7yrg2iu-105" value="SDP" style="rounded=0;whiteSpace=wrap;html=1;fillColor=#d5e8d4;strokeColor=#82b366;" vertex="1" parent="1">
          <mxGeometry x="750" y="660" width="120" height="40" as="geometry" />
        </mxCell>
        <mxCell id="CoiFYXESyOofG7yrg2iu-106" style="edgeStyle=orthogonalEdgeStyle;rounded=0;orthogonalLoop=1;jettySize=auto;html=1;entryX=0.392;entryY=1.05;entryDx=0;entryDy=0;entryPerimeter=0;dashed=1;" edge="1" parent="1" source="CoiFYXESyOofG7yrg2iu-105" target="CoiFYXESyOofG7yrg2iu-101">
          <mxGeometry relative="1" as="geometry">
            <Array as="points">
              <mxPoint x="810" y="740" />
              <mxPoint x="287" y="740" />
            </Array>
          </mxGeometry>
        </mxCell>
        <mxCell id="CoiFYXESyOofG7yrg2iu-107" value="Callback(7)" style="text;html=1;align=center;verticalAlign=middle;whiteSpace=wrap;rounded=0;" vertex="1" parent="1">
          <mxGeometry x="540" y="750" width="60" height="30" as="geometry" />
        </mxCell>
        <mxCell id="CoiFYXESyOofG7yrg2iu-108" value="Activation Req(4)" style="text;html=1;align=center;verticalAlign=middle;whiteSpace=wrap;rounded=0;" vertex="1" parent="1">
          <mxGeometry x="650" y="650" width="60" height="30" as="geometry" />
        </mxCell>
        <mxCell id="CoiFYXESyOofG7yrg2iu-109" value="Act Request(2)" style="text;html=1;align=center;verticalAlign=middle;whiteSpace=wrap;rounded=0;" vertex="1" parent="1">
          <mxGeometry x="390" y="640" width="60" height="30" as="geometry" />
        </mxCell>
        <mxCell id="CoiFYXESyOofG7yrg2iu-110" style="edgeStyle=orthogonalEdgeStyle;rounded=0;orthogonalLoop=1;jettySize=auto;html=1;entryX=0;entryY=0.5;entryDx=0;entryDy=0;" edge="1" parent="1" source="CoiFYXESyOofG7yrg2iu-111" target="CoiFYXESyOofG7yrg2iu-101">
          <mxGeometry relative="1" as="geometry">
            <Array as="points">
              <mxPoint x="110" y="680" />
              <mxPoint x="110" y="680" />
            </Array>
          </mxGeometry>
        </mxCell>
        <mxCell id="CoiFYXESyOofG7yrg2iu-111" value="Customer" style="shape=umlActor;verticalLabelPosition=bottom;verticalAlign=top;html=1;outlineConnect=0;fillColor=#d5e8d4;strokeColor=#82b366;" vertex="1" parent="1">
          <mxGeometry x="40" y="640" width="30" height="70" as="geometry" />
        </mxCell>
        <mxCell id="CoiFYXESyOofG7yrg2iu-112" value="Trigger Act(1)" style="text;html=1;align=center;verticalAlign=middle;whiteSpace=wrap;rounded=0;" vertex="1" parent="1">
          <mxGeometry x="110" y="640" width="60" height="30" as="geometry" />
        </mxCell>
        <mxCell id="CoiFYXESyOofG7yrg2iu-113" style="edgeStyle=orthogonalEdgeStyle;rounded=0;orthogonalLoop=1;jettySize=auto;html=1;" edge="1" parent="1" target="CoiFYXESyOofG7yrg2iu-111">
          <mxGeometry relative="1" as="geometry">
            <mxPoint x="575" y="660" as="sourcePoint" />
            <mxPoint x="80" y="640" as="targetPoint" />
            <Array as="points">
              <mxPoint x="575" y="580" />
              <mxPoint x="80" y="580" />
              <mxPoint x="80" y="640" />
              <mxPoint x="55" y="640" />
            </Array>
          </mxGeometry>
        </mxCell>
        <mxCell id="CoiFYXESyOofG7yrg2iu-114" style="edgeStyle=orthogonalEdgeStyle;rounded=0;orthogonalLoop=1;jettySize=auto;html=1;dashed=1;dashPattern=8 8;" edge="1" parent="1">
          <mxGeometry relative="1" as="geometry">
            <mxPoint x="70" y="660" as="sourcePoint" />
            <mxPoint x="555" y="660" as="targetPoint" />
            <Array as="points">
              <mxPoint x="90" y="660" />
              <mxPoint x="90" y="610" />
              <mxPoint x="555" y="610" />
            </Array>
          </mxGeometry>
        </mxCell>
        <mxCell id="CoiFYXESyOofG7yrg2iu-115" value="Web Consent Req(3)" style="text;html=1;align=center;verticalAlign=middle;whiteSpace=wrap;rounded=0;" vertex="1" parent="1">
          <mxGeometry x="240" y="550" width="90" height="30" as="geometry" />
        </mxCell>
        <mxCell id="CoiFYXESyOofG7yrg2iu-116" value="Web Consent Resp(3)" style="text;html=1;align=center;verticalAlign=middle;whiteSpace=wrap;rounded=0;" vertex="1" parent="1">
          <mxGeometry x="240" y="610" width="80" height="30" as="geometry" />
        </mxCell>
        <mxCell id="CoiFYXESyOofG7yrg2iu-117" value="SMS &lt;br&gt;&lt;div&gt;Opt-In&lt;/div&gt;&lt;div&gt;Nofication(8)&lt;/div&gt;" style="text;html=1;align=center;verticalAlign=middle;whiteSpace=wrap;rounded=0;" vertex="1" parent="1">
          <mxGeometry x="460" y="820" width="60" height="30" as="geometry" />
        </mxCell>
        <mxCell id="CoiFYXESyOofG7yrg2iu-125" style="edgeStyle=orthogonalEdgeStyle;rounded=0;orthogonalLoop=1;jettySize=auto;html=1;" edge="1" parent="1">
          <mxGeometry relative="1" as="geometry">
            <mxPoint x="805" y="660" as="sourcePoint" />
            <mxPoint x="45" y="630" as="targetPoint" />
            <Array as="points">
              <mxPoint x="805" y="510" />
              <mxPoint x="45" y="510" />
              <mxPoint x="45" y="620" />
            </Array>
          </mxGeometry>
        </mxCell>
        <mxCell id="CoiFYXESyOofG7yrg2iu-129" value="USSD Consent Req(5)" style="text;html=1;align=center;verticalAlign=middle;whiteSpace=wrap;rounded=0;" vertex="1" parent="1">
          <mxGeometry x="340" y="480" width="105" height="30" as="geometry" />
        </mxCell>
        <mxCell id="CoiFYXESyOofG7yrg2iu-133" style="edgeStyle=orthogonalEdgeStyle;rounded=0;orthogonalLoop=1;jettySize=auto;html=1;entryX=0.367;entryY=0.025;entryDx=0;entryDy=0;entryPerimeter=0;dashed=1;dashPattern=8 8;" edge="1" parent="1" target="CoiFYXESyOofG7yrg2iu-105">
          <mxGeometry relative="1" as="geometry">
            <mxPoint x="55" y="640" as="sourcePoint" />
            <mxPoint x="815" y="670" as="targetPoint" />
            <Array as="points">
              <mxPoint x="55" y="520" />
              <mxPoint x="794" y="520" />
            </Array>
          </mxGeometry>
        </mxCell>
        <mxCell id="CoiFYXESyOofG7yrg2iu-134" value="USSD Consent Resp(6)" style="text;html=1;align=center;verticalAlign=middle;whiteSpace=wrap;rounded=0;" vertex="1" parent="1">
          <mxGeometry x="310" y="520" width="170" height="30" as="geometry" />
        </mxCell>
        <mxCell id="CoiFYXESyOofG7yrg2iu-135" value="Text" style="text;html=1;align=center;verticalAlign=middle;whiteSpace=wrap;rounded=0;" vertex="1" parent="1">
          <mxGeometry x="-160" y="420" width="60" height="30" as="geometry" />
        </mxCell>
      </root>
    </mxGraphModel>
  </diagram>
</mxfile>
